# xmcd
#
# Track frame offsets:
# 150
# 19776
# 37593
# 59252
# 74990
# 88190
# 105046
# 109821
# 111981
# 133905
# 146484
# 164421
# 183557
# 197054
# 198878
#
# Disc length: 3104 seconds
#
#
# Revision: 0
# Processed by: cddbd v1.5.2PL0 Copyright (c) Steve Scherf et al.
# Submitted via: FreeRIP 2.96 
#
DISCID=d60c1e0f
DTITLE=Zeph and Azeem - Rise Up
DYEAR=2007
DGENRE=Hip-Hop
TTITLE0=Rise Up Ft. Luv Fyah
TTITLE1=Ten Steps Ahead
TTITLE2=Come One Come All
TTITLE3=That Type Of Music
TTITLE4=Ay Mami
TTITLE5=Here Comes The Judge
TTITLE6=Bonus Beats
TTITLE7=Kush On The Bush (Interlude)
TTITLE8=Time To Wake Up Ft. Joyo Velarde and Tony Moses
TTITLE9=Alpha Zeta
TTITLE10=Play The Drum
TTITLE11=Everything's Different Ft. Tut and Dj Teeko
TTITLE12=Make Your Brain Swing
TTITLE13=Last Call (Interlude)
TTITLE14=One Moor Time (Includes Hidden Bonus Track)
EXTD=
EXTT0=
EXTT1=
EXTT2=
EXTT3=
EXTT4=
EXTT5=
EXTT6=
EXTT7=
EXTT8=
EXTT9=
EXTT10=
EXTT11=
EXTT12=
EXTT13=
EXTT14=
PLAYORDER=
